<?xml version="1.0" encoding="iso-8859-1"?>
<!-- Generator: Adobe Illustrator 19.0.0, SVG Export Plug-In . SVG Version: 6.00 Build 0)  -->
<svg version="1.1" id="Capa_1" xmlns="http://www.w3.org/2000/svg" xmlns:xlink="http://www.w3.org/1999/xlink" x="0px" y="0px"
	 viewBox="0 0 489.75 489.75" style="enable-background:new 0 0 489.75 489.75;" xml:space="preserve" fill="#929ca5">
<g>
	<g>
		<g>
			
				<rect x="379.255" y="305.069" transform="matrix(-0.7071 -0.7071 0.7071 -0.7071 507.1124 855.5911)" width="102.999" height="35.4"/>
			
				<rect x="329.963" y="339.743" transform="matrix(-0.7071 -0.7071 0.7071 -0.7071 388.1579 904.7664)" width="102.999" height="64.499"/>
			
				<rect x="280.672" y="403.513" transform="matrix(-0.7071 -0.7071 0.7071 -0.7071 269.2094 953.9363)" width="102.999" height="35.4"/>
			<path d="M483.55,66.45l-60.3-60.3c-8.2-8.2-21.4-8.2-29.5,0l-34.2,34.2l89.8,89.8l34.2-34.2
				C491.75,87.85,491.75,74.65,483.55,66.45z"/>
			<polygon points="0.05,489.75 101.05,469.15 20.65,388.75 			"/>
			<rect x="37.129" y="260.39" transform="matrix(0.7071 -0.7071 0.7071 0.7071 -125.1701 267.5917)" width="446.596" height="49"/>
			<rect x="180.628" y="6.385" transform="matrix(0.7071 0.7071 -0.7071 0.7071 222.4912 -77.7745)" width="49" height="446.596"/>
		</g>
	</g>
</g>
<g>
</g>
<g>
</g>
<g>
</g>
<g>
</g>
<g>
</g>
<g>
</g>
<g>
</g>
<g>
</g>
<g>
</g>
<g>
</g>
<g>
</g>
<g>
</g>
<g>
</g>
<g>
</g>
<g>
</g>
</svg>
